#!OML:ASF I:\Actors\actors\Patient Classification 2\Patient 1\Session 1\actor1.ASF
:FULLY-SPECIFIED
:DEGREES
397
root -0.485984 18.7007 5.73367 2.58989 -2.82434 -1.70402
lowerback 3.18338 1.6695 -1.91316
upperback -2.75252 2.13857 0.202623
thorax -4.70655 1.12934 1.12544
lowerneck -15.2088 -2.92048 -1.25833
upperneck 8.8776 -4.31308 5.18751
head 5.29764 -1.77642 1.44752
rclavicle -3.68373e-014 -9.14409e-015
rhumerus 17.2811 1.7552 -50.051
rradius 110.453
rwrist -35.6969
rhand -12.0827 -53.7625
rfingers 7.12502
rthumb 13.9773 -83.2726
lclavicle -3.68373e-014 -9.14409e-015
lhumerus 21.4117 1.01511 48.7819
lradius 107.801
lwrist 60.8633
lhand -28.2592 -10.5303
lfingers 7.12502
lthumb -1.63625 19.4432
rfemur 0 0 0
rtibia 0
rfoot 0 0
rtoes 0
lfemur -4.47454 -5.59009 -13.4428
ltibia 21.6237
lfoot -25.3034 17.701
ltoes -53.753
398
root -0.484851 18.7011 5.73566 2.54221 -2.79045 -1.67006
lowerback 3.20337 1.65973 -1.92901
upperback -2.73991 2.12532 0.22534
thorax -4.70582 1.12359 1.15839
lowerneck -14.9284 -2.87315 -1.28205
upperneck 8.72498 -4.24033 5.21293
head 5.20264 -1.74731 1.46944
rclavicle 1.62134e-015 -5.56597e-015
rhumerus 18.4052 0.731666 -49.233
rradius 109.088
rwrist -35.9488
rhand -11.9373 -53.6189
rfingers 7.12502
rthumb 14.1174 -83.1193
lclavicle 1.62134e-015 -5.56597e-015
lhumerus 22.5889 1.75496 48.3249
lradius 106.284
lwrist 61.1246
lhand -28.1439 -10.3669
lfingers 7.12502
lthumb -1.52488 19.6074
rfemur 0 0 0
rtibia 0
rfoot 0 0
rtoes 0
lfemur -4.44178 -5.5968 -13.4857
ltibia 21.6632
lfoot -25.3449 17.6246
ltoes -53.653
399
root -0.483316 18.6996 5.73826 2.47926 -2.74165 -1.62827
lowerback 3.24334 1.64907 -1.93315
upperback -2.72914 2.11121 0.250772
thorax -4.71798 1.11717 1.18704
lowerneck -14.7568 -2.84968 -1.34417
upperneck 8.72582 -4.19721 5.21823
head 5.1747 -1.73084 1.48676
rclavicle -1.31446e-014 5.36719e-015
rhumerus 19.3776 -0.192484 -48.4578
rradius 107.74
rwrist -36.1774
rhand -11.8202 -53.4473
rfingers 7.12502
rthumb 14.2302 -82.9398
lclavicle -1.31446e-014 5.36719e-015
lhumerus 23.5458 2.37706 47.7404
lradius 104.863
lwrist 61.1219
lhand -28.1894 -10.1697
lfingers 7.12502
lthumb -1.56882 19.8043
rfemur 0 0 0
rtibia 0
rfoot 0 0
rtoes 0
lfemur -4.39304 -5.5676 -13.5337
ltibia 21.7023
lfoot -25.3468 17.527
ltoes -53.6693
400
root -0.482463 18.6986 5.73972 2.4176 -2.69719 -1.63028
lowerback 3.31523 1.6497 -1.87926
upperback -2.71604 2.11498 0.282757
thorax -4.74449 1.11788 1.18774
lowerneck -14.7274 -2.84814 -1.41868
upperneck 8.82025 -4.18136 5.18943
head 5.19957 -1.72657 1.49114
rclavicle -1.58158e-014 -3.37934e-015
rhumerus 20.2483 -1.10951 -47.7271
rradius 106.429
rwrist -36.6942
rhand -11.7988 -53.5416
rfingers 7.12502
rthumb 14.2509 -83.0327
lclavicle -1.58158e-014 -3.37934e-015
lhumerus 24.3988 2.94109 47.1267
lradius 103.483
lwrist 61.2152
lhand -28.1039 -9.94391
lfingers 7.12502
lthumb -1.48631 20.0307
rfemur 0 0 0
rtibia 0
rfoot 0 0
rtoes 0
lfemur -4.33918 -5.5048 -13.5267
ltibia 21.7051
lfoot -25.2734 17.4934
ltoes -53.8824
401
root -0.481707 18.6986 5.73965 2.3721 -2.66395 -1.65776
lowerback 3.42118 1.65888 -1.78644
upperback -2.71475 2.13127 0.303515
thorax -4.8012 1.12356 1.15287
lowerneck -14.7169 -2.84501 -1.43124
upperneck 8.86671 -4.16866 5.12377
head 5.21051 -1.72484 1.47369
rclavicle -9.12546e-015 -3.77691e-015
rhumerus 20.9986 -1.984 -47.0184
rradius 105.161
rwrist -37.351
rhand -11.8353 -53.6764
rfingers 7.12502
rthumb 14.2157 -83.1699
lclavicle -9.12546e-015 -3.77691e-015
lhumerus 25.1812 3.42561 46.4883
lradius 102.175
lwrist 61.6221
lhand -27.9577 -9.82305
lfingers 7.12502
lthumb -1.34507 20.1525
rfemur 0 0 0
rtibia 0
rfoot 0 0
rtoes 0
lfemur -4.31099 -5.51085 -13.4986
ltibia 21.7203
lfoot -25.2285 17.4896
ltoes -53.9627
402
root -0.480301 18.6977 5.73943 2.32422 -2.60293 -1.66401
lowerback 3.5475 1.65646 -1.70721
upperback -2.71736 2.13032 0.305604
thorax -4.87275 1.12084 1.10694
lowerneck -14.6344 -2.82116 -1.36062
upperneck 8.8105 -4.13893 5.05078
head 5.1752 -1.71529 1.44317
rclavicle 1.81205e-014 5.96354e-016
rhumerus 21.6657 -2.7648 -46.3319
rradius 103.911
rwrist -37.6908
rhand -11.674 -53.6344
rfingers 7.12502
rthumb 14.3711 -83.1169
lclavicle 1.81205e-014 5.96354e-016
lhumerus 25.8901 3.84112 45.8819
lradius 100.97
lwrist 62.1634
lhand -27.7531 -9.64369
lfingers 7.12502
lthumb -1.14743 20.333
rfemur 0 0 0
rtibia 0
rfoot 0 0
rtoes 0
lfemur -4.28736 -5.5542 -13.4955
ltibia 21.7455
lfoot -25.2235 17.4317
ltoes -53.8677
403
root -0.479616 18.6971 5.74025 2.27164 -2.52914 -1.66891
lowerback 3.64397 1.64298 -1.65632
upperback -2.7586 2.11399 0.318219
thorax -4.96872 1.11205 1.08921
lowerneck -14.3165 -2.80164 -1.22581
upperneck 8.71416 -4.11818 4.91407
head 5.08636 -1.71669 1.38424
rclavicle 6.59717e-015 -5.96354e-015
rhumerus 22.21 -3.3839 -45.6762
rradius 102.688
rwrist -37.6838
rhand -11.4273 -53.6296
rfingers 7.12502
rthumb 14.6088 -83.095
lclavicle 6.59717e-015 -5.96354e-015
lhumerus 26.5902 4.09597 45.3864
lradius 99.6485
lwrist 62.4888
lhand -27.449 -9.46682
lfingers 7.12502
lthumb -0.853769 20.5112
rfemur 0 0 0
rtibia 0
rfoot 0 0
rtoes 0
lfemur -4.25608 -5.55768 -13.4844
ltibia 21.7638
lfoot -25.1994 17.3632
ltoes -53.8256
404
root -0.479198 18.6972 5.74131 2.23282 -2.46825 -1.6848
lowerback 3.7037 1.62206 -1.61416
upperback -2.83953 2.08924 0.361411
thorax -5.08661 1.10039 1.10914
lowerneck -13.8262 -2.8024 -1.20626
upperneck 8.61353 -4.10326 4.78679
head 4.97059 -1.72672 1.34834
rclavicle -3.03706e-014 -2.18663e-015
rhumerus 22.6479 -3.82137 -44.9949
rradius 101.474
rwrist -37.6895
rhand -11.1615 -53.6463
rfingers 7.12502
rthumb 14.8649 -83.0931
lclavicle -3.03706e-014 -2.18663e-015
lhumerus 27.1491 4.21546 44.8903
lradius 98.3128
lwrist 62.4937
lhand -27.3383 -9.46932
lfingers 7.12502
lthumb -0.746839 20.5091
rfemur 0 0 0
rtibia 0
rfoot 0 0
rtoes 0
lfemur -4.23714 -5.49668 -13.4558
ltibia 21.7779
lfoot -25.1325 17.2769
ltoes -53.8753
405
root -0.478512 18.6971 5.74116 2.19682 -2.3992 -1.69275
lowerback 3.79375 1.6029 -1.5797
upperback -2.88217 2.06639 0.408378
thorax -5.18233 1.08957 1.13704
lowerneck -13.5867 -2.79969 -1.28258
upperneck 8.61137 -4.08156 4.75323
head 4.93057 -1.72463 1.35464
rclavicle -2.59352e-014 5.96354e-015
rhumerus 23.1105 -4.24259 -44.3592
rradius 100.278
rwrist -37.9055
rhand -10.6648 -53.4385
rfingers 7.12502
rthumb 15.3433 -82.8493
lclavicle -2.59352e-014 5.96354e-015
lhumerus 27.5957 4.35925 44.3895
lradius 97.1334
lwrist 62.3206
lhand -27.4975 -9.60247
lfingers 7.12502
lthumb -0.900635 20.3754
rfemur 0 0 0
rtibia 0
rfoot 0 0
rtoes 0
lfemur -4.22726 -5.41535 -13.4326
ltibia 21.7936
lfoot -25.0803 17.133
ltoes -53.9599
406
root -0.478029 18.697 5.73998 2.17234 -2.34455 -1.6838
lowerback 3.9148 1.59362 -1.56829
upperback -2.90745 2.05459 0.44558
thorax -5.27851 1.08472 1.1663
lowerneck -13.6035 -2.80048 -1.35622
upperneck 8.76976 -4.07617 4.75366
head 4.98383 -1.7217 1.36627
rclavicle 6.24308e-015 -9.54166e-015
rhumerus 23.5871 -4.67377 -43.836
rradius 99.1475
rwrist -38.3168
rhand -10.2092 -53.1854
rfingers 7.12502
rthumb 15.7821 -82.562
lclavicle 6.24308e-015 -9.54166e-015
lhumerus 28.005 4.53036 44.0055
lradius 96.0651
lwrist 62.0734
lhand -27.6771 -9.67302
lfingers 7.12502
lthumb -1.07406 20.304
rfemur 0 0 0
rtibia 0
rfoot 0 0
rtoes 0
lfemur -4.2229 -5.35978 -13.4325
ltibia 21.7999
lfoot -25.0274 17.0481
ltoes -54.0478
407
root -0.477753 18.6973 5.73913 2.1743 -2.31067 -1.66384
lowerback 4.00591 1.58891 -1.56218
upperback -2.93668 2.04835 0.467791
thorax -5.3616 1.0825 1.18337
lowerneck -13.5791 -2.81056 -1.37607
upperneck 8.87794 -4.08198 4.67962
head 5.01225 -1.72894 1.34574
rclavicle -2.2208e-014 -1.19271e-015
rhumerus 23.9695 -5.07972 -43.3938
rradius 98.1038
rwrist -38.6874
rhand -10.1338 -53.0662
rfingers 7.12502
rthumb 15.8548 -82.437
lclavicle -2.2208e-014 -1.19271e-015
lhumerus 28.3857 4.69256 43.7577
lradius 95.0886
lwrist 61.8181
lhand -27.5954 -9.65187
lfingers 7.12502
lthumb -0.995134 20.3256
rfemur 0 0 0
rtibia 0
rfoot 0 0
rtoes 0
lfemur -4.23785 -5.30725 -13.4482
ltibia 21.7973
lfoot -24.9645 17.0226
ltoes -54.0922
408
root -0.477471 18.698 5.73867 2.18714 -2.25809 -1.64083
lowerback 4.06076 1.59564 -1.54203
upperback -2.86596 2.05763 0.461061
thorax -5.31809 1.08541 1.16391
lowerneck -13.8702 -2.8278 -1.31404
upperneck 8.97761 -4.10592 4.56273
head 5.08788 -1.74064 1.29361
rclavicle -3.54644e-014 2.78299e-015
rhumerus 24.2986 -5.61635 -43.0632
rradius 97.1613
rwrist -38.5688
rhand -10.3621 -52.9388
rfingers 7.12502
rthumb 15.6349 -82.327
lclavicle -3.54644e-014 2.78299e-015
lhumerus 28.8426 4.91844 43.6648
lradius 94.2329
lwrist 61.6263
lhand -27.4026 -9.70323
lfingers 7.12502
lthumb -0.808923 20.275
rfemur 0 0 0
rtibia 0
rfoot 0 0
rtoes 0
lfemur -4.27284 -5.31233 -13.4657
ltibia 21.8001
lfoot -24.9575 16.9751
ltoes -54.0089
409
root -0.477167 18.699 5.73821 2.19803 -2.20573 -1.64249
lowerback 4.11222 1.61502 -1.48781
upperback -2.74019 2.0862 0.455035
thorax -5.21437 1.09597 1.12545
lowerneck -14.4032 -2.85748 -1.33719
upperneck 9.13638 -4.14576 4.55632
head 5.22656 -1.75109 1.28525
rclavicle 2.20589e-014 5.36719e-015
rhumerus 24.5617 -6.17368 -42.8079
rradius 96.3208
rwrist -37.9337
rhand -10.6528 -52.728
rfingers 7.12502
rthumb 15.355 -82.1379
lclavicle 2.20589e-014 5.36719e-015
lhumerus 29.2425 5.12311 43.7213
lradius 93.5315
lwrist 61.4121
lhand -27.1749 -9.86477
lfingers 7.12502
lthumb -0.589004 20.1142
rfemur 0 0 0
rtibia 0
rfoot 0 0
rtoes 0
lfemur -4.30654 -5.36013 -13.4577
ltibia 21.8095
lfoot -24.9552 16.9471
ltoes -53.9683
